<?xml version="1.0" encoding="UTF-8"?>
<!DOCTYPE svg PUBLIC "-//W3C//DTD SVG 1.1//EN" "http://www.w3.org/Graphics/SVG/1.1/DTD/svg11.dtd">
<!-- Creator: CorelDRAW -->
<svg xmlns="http://www.w3.org/2000/svg" xml:space="preserve" width="200px" height="83px" version="1.1" style="shape-rendering:geometricPrecision; text-rendering:geometricPrecision; image-rendering:optimizeQuality; fill-rule:evenodd; clip-rule:evenodd"
viewBox="0 0 24280 10110"
 xmlns:xlink="http://www.w3.org/1999/xlink"
 xmlns:xodm="http://www.corel.com/coreldraw/odm/2003">
 <defs>
  <style type="text/css">
   <![CDATA[
    .fil0 {fill:#C4A35E;fill-rule:nonzero}
    .fil1 {fill:white;fill-rule:nonzero}
   ]]>
  </style>
 </defs>
 <g id="Laag_x0020_1">
  <metadata id="CorelCorpID_0Corel-Layer"/>
  <polygon class="fil0" points="4750,8300 5120,8300 4610,9740 4170,9740 3660,8300 4030,8300 4390,9390 "/>
  <path class="fil0" d="M6050 8690l-170 520 350 0 -180 -520zm270 790l-540 0 -80 260 -370 0 520 -1440 410 0 520 1440 -370 0 -90 -260z"/>
  <polygon class="fil0" points="8550,8300 8550,9740 8200,9740 7610,8850 7610,9740 7260,9740 7260,8300 7610,8300 8200,9190 8200,8300 "/>
  <path class="fil0" d="M10410 9430c260,0 420,-150 420,-410 0,-270 -160,-420 -420,-420l-160 0 0 830 160 0zm780 -410c0,420 -300,720 -760,720l-540 0 0 -1440 540 0c460,0 760,290 760,720z"/>
  <polygon class="fil0" points="12590,8580 12060,8580 12060,8870 12530,8870 12530,9140 12060,9140 12060,9460 12590,9460 12590,9740 11710,9740 11710,8300 12590,8300 "/>
  <path class="fil0" d="M13720 8590l-220 0 0 360 220 0c130,0 190,-70 190,-180 0,-110 -60,-180 -190,-180zm20 -290c350,0 520,200 520,450 0,180 -90,350 -320,420l340 570 -400 0 -300 -550 -80 0 0 550 -350 0 0 -1440 590 0z"/>
  <polygon class="fil0" points="16560,8560 15950,9450 16560,9450 16560,9740 15550,9740 15550,9470 16160,8580 15550,8580 15550,8300 16560,8300 "/>
  <path class="fil0" d="M17750 8690l-180 520 360 0 -180 -520zm270 790l-540 0 -90 260 -360 0 520 -1440 400 0 520 1440 -370 0 -80 -260z"/>
  <polygon class="fil0" points="19310,8300 19310,9470 19770,9470 19770,9740 18960,9740 18960,8300 "/>
  <polygon class="fil0" points="20260,8300 20680,8300 21080,9290 21480,8300 21890,8300 21890,9740 21540,9740 21540,8870 21220,9740 20940,9740 20610,8870 20610,9740 20260,9740 "/>
  <path class="fil1" d="M5710 3290c80,70 130,160 170,290 30,130 40,270 10,420 -10,70 -20,130 -30,180 -10,50 -60,420 -60,550 -10,130 -10,270 -10,410 -20,50 -30,480 -40,570 0,90 -10,610 -20,730 0,120 -10,530 -10,570 -10,50 -10,160 -10,160 0,20 10,70 0,90 0,100 -40,140 -100,140 -10,0 -20,0 -30,0 0,-10 -110,-10 -140,-120 -20,-60 -80,-180 -80,-300 0,-50 60,-1730 60,-1790 0,-40 30,-400 30,-500 10,-90 -10,-960 -20,-1040l0 -40c10,-250 70,-380 170,-380 40,0 70,20 110,60zm90 -1560c90,160 120,320 60,480 -30,90 -60,170 -90,250 -30,90 -60,150 -110,200l-30 0c-130,-80 -220,-190 -260,-330 -40,-150 -30,-290 30,-440 30,-50 50,-90 70,-130 20,-40 40,-70 70,-100 30,-40 60,-60 90,-60 50,0 110,50 170,130zm3700 5060c-100,-40 -190,-100 -260,-160 -80,-70 -140,-150 -190,-250 -40,-70 -70,-130 -100,-200 -30,-70 -70,-140 -100,-220 -90,-210 -110,-1030 -110,-1030 -20,-270 -1210,1380 -1270,1450 -50,70 -260,320 -310,370 -50,60 -330,340 -410,430 -90,90 -190,150 -320,180 -20,10 -240,0 -390,-230 -50,-90 -70,-140 -50,-400 20,-270 190,-1030 610,-2480 20,-50 120,-400 160,-460 50,-50 120,-90 220,-100 100,0 180,30 230,80 50,60 110,160 120,210 10,50 -170,320 -240,480 -70,170 -350,1130 -350,1130 -20,50 -270,1170 -210,1190 60,10 480,-420 680,-660 190,-230 370,-470 550,-730 30,-50 70,-100 110,-150 40,-50 70,-100 110,-150 80,-100 160,-210 240,-320 80,-110 160,-210 250,-310 110,-110 210,-160 310,-160 30,0 70,10 110,30 80,30 130,80 150,150 30,70 110,970 130,1020 10,50 70,430 230,600 60,70 280,210 320,220 130,70 190,160 160,280 -40,130 -120,200 -260,200 -20,0 -40,0 -60,0 -20,0 -40,-10 -60,-10zm610 500c-240,-90 -300,-380 -300,-380 -20,-70 0,-140 -10,-210 -40,-170 50,-380 50,-380 100,-180 210,-370 340,-550 120,-190 900,-1050 1090,-1240 200,-190 410,-350 650,-500 90,-30 150,-50 200,-50 90,0 150,20 190,70 150,140 190,280 120,420 -20,80 -50,160 -90,240 -30,90 -60,170 -100,250 -10,30 -30,50 -60,90 -20,30 -70,40 -140,40 -110,0 -180,-50 -230,-170 0,0 -10,-80 -20,-100 -10,-30 -10,-60 -70,-90 -90,-50 -260,110 -360,190 -100,90 -200,190 -300,290 -100,100 -190,210 -280,320 -90,110 -580,770 -620,980 -40,210 -30,260 40,380 70,110 180,160 180,160 590,130 1460,-260 1670,-360 210,-100 400,-220 600,-360 0,0 200,-120 240,-140 40,-30 80,-60 120,-90 30,-30 70,-60 120,-80 40,-30 80,-40 130,-40 20,0 50,20 80,80 20,10 30,30 40,70 0,40 -30,80 -100,130 -20,20 -670,380 -750,430 -90,40 -810,390 -850,420 0,0 -580,280 -1170,260 0,0 -160,0 -410,-80zm4550 -2310c200,-50 340,-210 490,-340 150,-120 590,-460 520,-510 -80,-50 -480,240 -610,350 -140,120 -530,450 -400,500zm1860 1000c20,30 30,60 10,90 -20,40 -50,60 -80,80 -80,50 -160,110 -230,160 -80,50 -430,310 -530,380 -100,80 -440,280 -500,320 -70,40 -360,170 -440,190 -80,30 -290,130 -630,130 -130,0 -240,-30 -350,-90 -100,-60 -200,-190 -300,-430 -60,-140 -30,-280 -30,-330 0,-50 80,-180 -10,-190 -80,-10 -340,-30 -340,-40 -190,-80 -260,-210 -200,-400 30,-100 70,-160 140,-190 60,-40 140,-50 240,-50 40,0 90,0 140,-10 50,0 300,-70 360,-120 60,-50 120,-100 180,-170 100,-130 220,-290 360,-460 150,-180 300,-340 470,-510 170,-160 340,-310 510,-440 180,-130 350,-220 520,-270 60,-10 110,-20 140,-20 110,0 200,50 270,140 60,60 80,130 80,200 0,70 -20,140 -50,210 -240,410 -770,790 -870,900 -150,90 -290,190 -440,300 -150,100 -1060,600 -1110,790 -30,90 -100,430 -60,520 40,160 90,260 150,320 50,60 160,80 330,80 100,0 190,-20 290,-40 100,-20 410,-140 470,-170 190,-80 470,-270 530,-310 30,-30 690,-490 780,-560 20,-10 40,-20 60,-40 20,-10 40,-20 60,-20 20,0 50,20 80,50zm3000 650c-80,-70 -140,-150 -190,-250 -30,-70 -70,-140 -100,-200 -150,-300 -200,-1250 -200,-1250 -20,-190 -370,300 -530,470 -150,170 -1390,1690 -1470,1780 -90,90 -190,150 -310,180 -20,10 -50,10 -90,10 -170,-50 -280,-130 -300,-240 -110,-500 60,-930 50,-980l20 -20c-20,-180 600,-2280 650,-2340 40,-50 120,-90 220,-100 100,0 170,30 220,80 50,60 90,130 120,210 0,70 -100,150 -240,480 -130,330 -460,1620 -460,1620 -20,60 -170,660 -90,700 70,30 480,-420 670,-660 190,-230 380,-470 550,-730 30,-50 70,-100 110,-150 40,-50 80,-100 120,-150 80,-100 160,-210 230,-320 80,-110 170,-210 250,-310 110,-110 210,-160 310,-160 40,0 80,10 110,30 80,30 140,80 160,150 20,70 50,320 40,370 0,60 50,550 160,910 0,30 60,320 370,500 30,20 300,130 270,340 -30,140 -130,200 -270,200 -10,0 -40,0 -50,0 -20,0 -260,-110 -330,-170zm2860 -4420c0,50 -20,80 -50,100 -40,10 -200,50 -480,60 -120,10 -350,10 -350,20 -100,110 -910,3220 -960,3720 -50,500 -110,1080 -120,1110 -20,50 -40,90 -70,120 -40,30 -90,50 -150,50 -90,0 -140,-30 -170,-80 -60,-120 -20,-290 -20,-310 10,-30 880,-3970 890,-4010 0,-40 150,-530 120,-530 -10,0 -20,10 -30,10 -10,0 -20,0 -40,0 -120,10 -230,20 -350,30 -120,10 -240,30 -360,40 -100,10 -210,10 -320,20 -100,10 -330,40 -350,40 -20,0 -150,0 -200,0 -40,0 -80,0 -130,-20 -80,0 -120,-20 -110,-90 10,-50 40,-80 110,-80 80,-10 150,-20 230,-20 70,0 150,0 220,0 180,0 620,-30 620,-30 60,0 120,0 180,0 50,-10 400,-40 450,-50 60,0 120,-10 180,-20 10,-40 70,-270 90,-310 20,-30 180,-650 200,-720 10,-70 80,-350 260,-450 50,-30 130,-40 220,-40 120,0 200,50 240,140 30,60 40,130 10,170 -80,130 -380,540 -460,780 -30,90 -180,360 -80,370 10,0 600,-90 620,-90 20,0 30,0 40,0 70,0 100,20 120,70zm-22320 40c50,-50 90,-100 140,-130 40,-40 100,-60 170,-60 40,0 60,10 80,20 120,10 190,60 230,140 40,70 60,160 80,250 50,480 70,970 90,1460 10,500 30,990 50,1470 40,510 90,1020 150,1520 60,490 160,1000 290,1510 10,30 30,110 70,220 40,110 90,230 140,340 50,120 100,230 150,320 60,90 100,140 140,140 30,0 70,-30 100,-90 140,-200 250,-410 350,-640 90,-230 180,-460 270,-680 320,-970 630,-1930 950,-2890 320,-960 650,-1910 980,-2860 90,-330 190,-660 320,-980 120,-320 230,-640 340,-940 20,-30 30,-60 40,-100 10,-30 90,-310 280,-270 30,10 60,10 80,20 60,40 110,90 140,150 30,60 30,130 -20,200 0,0 -350,820 -520,1180 -170,350 -330,720 -490,1090 -330,790 -620,1590 -870,2400 -250,800 -500,1620 -740,2430 -90,340 -180,670 -280,1010 -90,340 -210,680 -340,1010 -40,70 -80,130 -110,190 -20,60 -60,130 -100,200 -140,150 -280,230 -420,230 -170,0 -310,-90 -420,-270 -110,-150 -190,-320 -240,-510 -60,-190 -110,-370 -150,-550 -130,-530 -220,-1060 -270,-1600 -40,-540 -100,-1090 -170,-1650 -20,-420 -50,-840 -110,-1270 -40,-420 -110,-850 -200,-1270 -20,-70 -40,-130 -70,-190 -30,-60 -60,-110 -110,-160 -80,-130 -80,-260 0,-390z"/>
  <path class="fil0" d="M23330 9650l-740 -740 490 -490 130 140 -290 280c-30,40 -30,90 0,130l360 350c10,10 30,20 50,20 30,0 50,-10 70,-20l350 -350c10,-20 20,-40 20,-60 0,-30 -10,-50 -20,-70l-290 -280 120 -130 490 480 -740 740zm0 -970l230 230 -230 220 -220 -220 220 -230zm920 170l-610 -600c-30,-40 -80,-40 -120,0l-190 180 -190 -190c-10,-20 -40,-20 -60,-20 -20,0 -40,0 -60,20l-610 610c-30,40 -30,90 0,120l860 860c10,20 40,30 60,30 20,0 40,-10 60,-30l860 -860c30,-30 30,-80 0,-120z"/>
 </g>
</svg>
